<?xml version="1.0" standalone="no"?>
<!DOCTYPE svg PUBLIC "-//W3C//DTD SVG 20010904//EN"
 "http://www.w3.org/TR/2001/REC-SVG-20010904/DTD/svg10.dtd">
<svg version="1.0" xmlns="http://www.w3.org/2000/svg"
 width="1280.000000pt" height="914.000000pt" viewBox="0 0 1280.000000 914.000000"
 preserveAspectRatio="xMidYMid meet">
<metadata>
Created by potrace 1.15, written by Peter Selinger 2001-2017
</metadata>
<g transform="translate(0.000000,914.000000) scale(0.100000,-0.100000)"
fill="#000000" stroke="none">
<path d="M9950 9060 c-234 -43 -1264 -232 -2290 -419 -1168 -212 -1886 -348
-1920 -361 -191 -75 -385 -291 -455 -505 -44 -134 -49 -304 -16 -450 28 -119
116 -287 678 -1303 327 -591 591 -1078 587 -1082 -8 -7 -4330 -2387 -4424
-2435 l-35 -19 65 -18 c74 -21 161 -54 341 -127 238 -97 465 -141 720 -141
291 1 466 38 798 172 289 117 485 163 736 175 291 13 546 -42 935 -201 247
-101 472 -146 730 -146 258 0 483 45 730 146 284 116 479 171 682 193 335 37
630 -17 1058 -193 155 -64 316 -108 480 -132 157 -23 439 -15 595 16 125 24
216 48 229 60 4 5 -109 219 -251 477 -1543 2782 -2274 4105 -2271 4107 1 1
356 67 788 145 1821 331 2149 392 2230 412 172 44 320 130 442 257 167 175
249 396 235 632 -24 374 -268 678 -632 785 -70 21 -117 28 -215 31 -122 3
-137 1 -550 -76z"/>
<path d="M10710 6376 c-237 -42 -425 -117 -619 -246 -157 -105 -337 -293 -438
-455 -354 -570 -294 -1324 148 -1834 339 -392 916 -576 1457 -465 275 57 548
204 753 407 549 542 610 1392 145 2010 -30 41 -102 119 -159 174 -207 199
-453 330 -740 394 -118 27 -432 35 -547 15z"/>
<path d="M1344 1514 c-159 -21 -319 -68 -534 -154 -282 -113 -466 -158 -713
-176 l-97 -6 0 -591 0 -590 106 7 c233 15 414 59 664 161 192 78 283 108 425
140 161 35 308 48 475 42 276 -11 469 -58 784 -192 256 -108 468 -150 751
-149 293 1 453 34 769 160 368 148 592 193 896 181 258 -11 429 -50 720 -167
352 -141 509 -174 815 -174 304 1 455 33 792 169 288 117 480 162 733 172 305
12 563 -40 904 -183 281 -118 483 -159 776 -158 283 1 467 38 724 145 346 144
588 199 868 199 275 0 521 -55 827 -184 231 -98 435 -147 669 -162 l102 -7 0
590 0 590 -137 12 c-233 19 -435 71 -663 169 -281 120 -520 172 -800 172 -296
0 -490 -45 -869 -200 -253 -103 -460 -144 -736 -143 -309 1 -498 44 -875 203
-97 41 -279 93 -400 115 -52 9 -171 19 -265 22 -304 9 -509 -32 -860 -171
-115 -46 -255 -95 -310 -110 -290 -74 -575 -83 -859 -25 -131 27 -256 67 -463
151 -276 111 -501 158 -758 158 -274 0 -486 -45 -796 -170 -109 -44 -249 -93
-311 -109 -441 -117 -855 -83 -1298 107 -198 84 -353 129 -552 157 -127 18
-368 18 -504 -1z"/>
</g>
</svg>
