<?xml version="1.0" encoding="utf-8"?>

<!DOCTYPE svg PUBLIC "-//W3C//DTD SVG 1.1//EN" "http://www.w3.org/Graphics/SVG/1.1/DTD/svg11.dtd">
<!-- Uploaded to: SVG Repo, www.svgrepo.com, Generator: SVG Repo Mixer Tools -->
<svg height="800px" width="800px" version="1.1" id="_x32_" xmlns="http://www.w3.org/2000/svg" xmlns:xlink="http://www.w3.org/1999/xlink" 
	 viewBox="0 0 512 512"  xml:space="preserve">
<style type="text/css">
	.st0{fill:#000000;}
</style>
<g>
	<path class="st0" d="M390.243,285.817c-3.848-9.216-19.192-21.488-19.192-21.488s-26.855-42.216-36.067-46.048
		c-9.216-3.848-32.87-22.425-43.614-26.257c-10.744-3.832-26.475-7.696-29.936-14.584c-1.536-3.072-2.304-7.292,0-10.364
		c2.296-3.072,8.828-12.272,8.828-17.268c0-4.988,0.38-11.9,0.38-13.428c0-1.536,3.072-10.356-0.768-18.804
		c-5.627-12.393-32.231-18.424-43.744-3.84c-3.629,2.078-6.313,7.737-8.747,14.301c-0.93-4.819-1.528-8.448-1.625-9.693
		c-0.372-4.996,25.142-62.75,27.632-69.265c2.49-6.524-0.372-15.926-5.942-21.496c-5.561-5.562-13.816-21.108-14.389-24.94
		c-0.574-3.848-4.422-3.072-4.988-0.388c-0.582,2.685,0.388,10.364,2.684,16.12c-10.55-3.266-18.036,4.026-17.656,9.022
		c0.324,4.204,0.946,8.23,3.428,8.48c-0.283,1.366,0.38,3.371,2.716,5.715c6.144,6.144,16.12,2.304,13.816,6.904
		c-2.304,4.608-32.232,63.703-31.472,69.847c0.501,3.969,2.611,23.347,4.867,39.661c-6.904,1.52-14.454,2.902-17.915,13.298
		c-5.368,16.12-16.119,24.56-16.119,24.56c-10.736,1.536-15.344-3.064-10.736,1.536c4.608,4.608,19.191,16.12,29.927,9.208
		c4.511,2.877,12.094,6.597,20.275,8.06c-2.804,8.836-4.882,16.006-2.619,21.876c7.681,19.96,8.44,43.744,2.911,61.238
		c-3.089,9.758-22.507,28.156-44.762,62.692c-22.256,34.544-24.018,73.914-36.436,121.674c0,0-1.302,9.912,23.8,8.44
		c34.584-2.037,19.192,7.68,64.463,15.359c42.086,7.114,103.348-17.591,119.565-61.762c6.055,9.725,12.607,20.049,12.607,20.049
		l4.446,28.246c0,0-1.891,12.336-3.864,14.826c-1.973,2.49,2.28,5.497,7.696,4.495c5.433-1.011,14.633-6.079,15.36-10.639
		c0.728-4.56-0.324-17.785-1.94-20.841c-1.617-3.056-0.97-3.897,1.892-2.038c3.104,2.022,2.958,5.045,4.705,6.824
		c2.716,2.756,5.206,0.348,4.899-1.1c-0.291-1.44-2.651-9.766-6.112-17.769c-2.926-6.775-8.521-12.563-9.264-14.536l-12.902-20.696
		c15.634-4.317,35.118-2.595,31.771-6.427c-10.752-12.28-32.838-43.032-40.518-57.615c-7.676-14.584-35.468-62.119-66.172-82.071
		c0,0,11.625-48.392,16.233-52.224c4.608-3.84,38.893,9.41,42.733,10.17c3.848,0.76,26.108,29.928,26.868,33.76
		c0.76,3.84-2.312,15.36,0,26.096c2.296,10.752,6.128,1.536,7.664-6.144c0,0,15.36,21.504,18.432,22.264
		c3.056,0.768,3.832-6.904,1.536-11.512C382.563,302.697,394.075,295.026,390.243,285.817z M212.315,35.451
		c-0.954-0.954-2.014-1.439-2.959-1.52c0.194-2.554-2.716-6.855,1.423-9.224c5.376-3.064,9.975,0,12.28,5.376
		C225.363,35.451,216.147,39.291,212.315,35.451z"/>
</g>
</svg>